<mxfile host="app.diagrams.net" modified="2023-07-15T18:38:40.054Z" agent="Mozilla/5.0 (Windows NT 10.0; Win64; x64) AppleWebKit/537.36 (KHTML, like Gecko) Chrome/114.0.0.0 Safari/537.36" etag="gPgnR4l46VAO7amKNUL1" version="21.1.9" type="github">
  <diagram name="Page-1" id="v2ZAikmmTGrq9qf6-KFw">
    <mxGraphModel dx="983" dy="430" grid="1" gridSize="10" guides="1" tooltips="1" connect="1" arrows="1" fold="1" page="1" pageScale="1" pageWidth="850" pageHeight="1100" math="0" shadow="0">
      <root>
        <mxCell id="0" />
        <mxCell id="1" parent="0" />
        <mxCell id="3XvhKQUpufL0Zad9og4j-8" value="" style="edgeStyle=orthogonalEdgeStyle;rounded=0;orthogonalLoop=1;jettySize=auto;html=1;" edge="1" parent="1" source="3XvhKQUpufL0Zad9og4j-3" target="3XvhKQUpufL0Zad9og4j-5">
          <mxGeometry relative="1" as="geometry" />
        </mxCell>
        <mxCell id="3XvhKQUpufL0Zad9og4j-3" value="Amazon API Gateway" style="sketch=0;outlineConnect=0;fontColor=#232F3E;gradientColor=none;strokeColor=#ffffff;fillColor=#232F3E;dashed=0;verticalLabelPosition=middle;verticalAlign=bottom;align=center;html=1;whiteSpace=wrap;fontSize=10;fontStyle=1;spacing=3;shape=mxgraph.aws4.productIcon;prIcon=mxgraph.aws4.api_gateway;" vertex="1" parent="1">
          <mxGeometry x="300" y="90" width="80" height="110" as="geometry" />
        </mxCell>
        <mxCell id="3XvhKQUpufL0Zad9og4j-7" value="" style="edgeStyle=orthogonalEdgeStyle;rounded=0;orthogonalLoop=1;jettySize=auto;html=1;" edge="1" parent="1" source="3XvhKQUpufL0Zad9og4j-4" target="3XvhKQUpufL0Zad9og4j-3">
          <mxGeometry relative="1" as="geometry" />
        </mxCell>
        <mxCell id="3XvhKQUpufL0Zad9og4j-4" value="Amazon Route 53" style="sketch=0;outlineConnect=0;fontColor=#232F3E;gradientColor=none;strokeColor=#ffffff;fillColor=#232F3E;dashed=0;verticalLabelPosition=middle;verticalAlign=bottom;align=center;html=1;whiteSpace=wrap;fontSize=10;fontStyle=1;spacing=3;shape=mxgraph.aws4.productIcon;prIcon=mxgraph.aws4.route_53;" vertex="1" parent="1">
          <mxGeometry x="120" y="160" width="80" height="110" as="geometry" />
        </mxCell>
        <mxCell id="3XvhKQUpufL0Zad9og4j-10" value="" style="edgeStyle=orthogonalEdgeStyle;rounded=0;orthogonalLoop=1;jettySize=auto;html=1;entryX=0;entryY=0.594;entryDx=0;entryDy=0;entryPerimeter=0;" edge="1" parent="1" source="3XvhKQUpufL0Zad9og4j-5" target="3XvhKQUpufL0Zad9og4j-9">
          <mxGeometry relative="1" as="geometry" />
        </mxCell>
        <mxCell id="3XvhKQUpufL0Zad9og4j-5" value="Elastic Load Balancing" style="sketch=0;outlineConnect=0;fontColor=#232F3E;gradientColor=none;strokeColor=#ffffff;fillColor=#232F3E;dashed=0;verticalLabelPosition=middle;verticalAlign=bottom;align=center;html=1;whiteSpace=wrap;fontSize=10;fontStyle=1;spacing=3;shape=mxgraph.aws4.productIcon;prIcon=mxgraph.aws4.elastic_load_balancing;" vertex="1" parent="1">
          <mxGeometry x="440" y="160" width="80" height="110" as="geometry" />
        </mxCell>
        <mxCell id="3XvhKQUpufL0Zad9og4j-17" value="" style="edgeStyle=orthogonalEdgeStyle;rounded=0;orthogonalLoop=1;jettySize=auto;html=1;" edge="1" parent="1" source="3XvhKQUpufL0Zad9og4j-9" target="3XvhKQUpufL0Zad9og4j-16">
          <mxGeometry relative="1" as="geometry" />
        </mxCell>
        <mxCell id="3XvhKQUpufL0Zad9og4j-9" value="WEB LAYER" style="fillColor=none;strokeColor=#5A6C86;dashed=1;verticalAlign=top;fontStyle=0;fontColor=#5A6C86;whiteSpace=wrap;html=1;" vertex="1" parent="1">
          <mxGeometry x="640" y="100" width="170" height="200" as="geometry" />
        </mxCell>
        <mxCell id="3XvhKQUpufL0Zad9og4j-11" value="" style="sketch=0;points=[[0,0,0],[0.25,0,0],[0.5,0,0],[0.75,0,0],[1,0,0],[0,1,0],[0.25,1,0],[0.5,1,0],[0.75,1,0],[1,1,0],[0,0.25,0],[0,0.5,0],[0,0.75,0],[1,0.25,0],[1,0.5,0],[1,0.75,0]];outlineConnect=0;fontColor=#232F3E;gradientColor=#F78E04;gradientDirection=north;fillColor=#D05C17;strokeColor=#ffffff;dashed=0;verticalLabelPosition=bottom;verticalAlign=top;align=center;html=1;fontSize=12;fontStyle=0;aspect=fixed;shape=mxgraph.aws4.resourceIcon;resIcon=mxgraph.aws4.ec2;" vertex="1" parent="1">
          <mxGeometry x="668.25" y="143.25" width="40" height="40" as="geometry" />
        </mxCell>
        <mxCell id="3XvhKQUpufL0Zad9og4j-13" value="" style="sketch=0;points=[[0,0,0],[0.25,0,0],[0.5,0,0],[0.75,0,0],[1,0,0],[0,1,0],[0.25,1,0],[0.5,1,0],[0.75,1,0],[1,1,0],[0,0.25,0],[0,0.5,0],[0,0.75,0],[1,0.25,0],[1,0.5,0],[1,0.75,0]];outlineConnect=0;fontColor=#232F3E;gradientColor=#F78E04;gradientDirection=north;fillColor=#D05C17;strokeColor=#ffffff;dashed=0;verticalLabelPosition=bottom;verticalAlign=top;align=center;html=1;fontSize=12;fontStyle=0;aspect=fixed;shape=mxgraph.aws4.resourceIcon;resIcon=mxgraph.aws4.lambda;" vertex="1" parent="1">
          <mxGeometry x="738.25" y="153.25" width="43.5" height="43.5" as="geometry" />
        </mxCell>
        <mxCell id="3XvhKQUpufL0Zad9og4j-14" value="Amazon ECS" style="sketch=0;outlineConnect=0;fontColor=#232F3E;gradientColor=none;strokeColor=#ffffff;fillColor=#232F3E;dashed=0;verticalLabelPosition=middle;verticalAlign=bottom;align=center;html=1;whiteSpace=wrap;fontSize=10;fontStyle=1;spacing=3;shape=mxgraph.aws4.productIcon;prIcon=mxgraph.aws4.ecs;" vertex="1" parent="1">
          <mxGeometry x="668.25" y="206.75" width="50" height="80" as="geometry" />
        </mxCell>
        <mxCell id="3XvhKQUpufL0Zad9og4j-16" value="APP LAYER" style="fillColor=none;strokeColor=#5A6C86;dashed=1;verticalAlign=top;fontStyle=0;fontColor=#5A6C86;whiteSpace=wrap;html=1;" vertex="1" parent="1">
          <mxGeometry x="850" y="100" width="170" height="200" as="geometry" />
        </mxCell>
      </root>
    </mxGraphModel>
  </diagram>
</mxfile>
